<svg viewBox="0 0 96 96" xmlns="http://www.w3.org/2000/svg" xmlns:xlink="http://www.w3.org/1999/xlink" id="Icons_HotelBell" overflow="hidden"><path d="M86.061 73C83.661 71.077 81.817 69.366 80.727 66.613 80.5625 66.1798 80.4334 65.734 80.341 65.28L80.318 65.18C80.1679 64.4927 79.5604 64.0021 78.857 64L17.271 64C16.5663 64.0019 15.9579 64.4942 15.809 65.183 15.7152 65.6514 15.5831 66.1113 15.414 66.558 14.306 69.35 12.439 71.1 10 73.049L10 77 86.123 77 86.123 73.128C86.1229 73.0781 86.1001 73.031 86.061 73Z" fill="#D11C21"/><path d="M80.061 56C78.1257 54.2219 76.738 51.9284 76.061 49.389 73.375 38.258 64.783 32.489 53.061 31.257L53.061 31C53.0592 29.0135 51.8816 27.2166 50.061 26.422L50.061 23 52.061 23C53.1656 23 54.061 22.1046 54.061 21 54.061 19.8954 53.1656 19 52.061 19L44.061 19C42.9564 19 42.061 19.8954 42.061 21 42.061 22.1046 42.9564 23 44.061 23L46.061 23 46.061 26.422C44.2404 27.2166 43.0628 29.0136 43.061 31L43.061 31.257C31.34 32.49 22.747 38.257 20.061 49.389 19.3844 51.9286 17.9967 54.2222 16.061 56L16.061 60 80.061 60Z" fill="#D11C21"/></svg>