<svg viewBox="0 0 96 96" xmlns="http://www.w3.org/2000/svg" xmlns:xlink="http://www.w3.org/1999/xlink" id="Icons_PoolFloatie" overflow="hidden"><path d="M89.59 31.1C89.2824 29.2058 89.0771 27.2963 88.975 25.38 89.417 24.0752 89.3958 22.658 88.915 21.367 87.4719 17.269 84.564 13.8496 80.751 11.767 76.7365 9.68055 72.0183 9.42225 67.8 11.058 67.313 11.239 66.828 11.445 66.361 11.668 61.8314 13.8399 58.5461 17.9668 57.445 22.868 56.2333 28.0214 57.4493 33.446 60.745 37.589L60.885 37.767C60.985 37.898 61.066 38.039 61.168 38.167 61.27 38.295 61.376 38.405 61.483 38.521L72.105 51.921C64.3715 49.0406 56.1708 47.6192 47.919 47.729 36.231 47.729 25.773 50.282 18.751 54.302L17.358 45.721C9.58913 46.9755 4.30821 54.2904 5.56272 62.0593 5.99289 64.7232 7.17066 67.2102 8.959 69.231 10.038 70.448 11.109 71.665 12.106 72.95 17.571 79.992 31.547 85 47.926 85 65.709 85 80.65 79.1 84.95 71.1 85.661 69.777 86.304 68.418 87.078 67.131 87.8729 65.8049 88.454 64.3619 88.8 62.855 89.8619 58.3324 88.7932 53.5726 85.9 49.938L70.488 30.483C69.8944 29.6262 69.6863 28.5602 69.914 27.543 70.0895 26.6597 70.6677 25.9091 71.477 25.514 71.577 25.466 71.677 25.423 71.777 25.386 73.6268 24.7017 75.6814 25.6438 76.37 27.492 76.7616 28.5465 77.4422 29.4694 78.334 30.155 79.343 31.221 81.019 32.538 82.995 34.824 86.617 39.013 88.345 39.559 89.417 38.714 91.424 37.137 90.1 33.587 89.59 31.1ZM48.36 68.324C39.379 68.324 32.098 66.25 32.098 63.692 32.098 61.134 39.379 59.06 48.36 59.06 57.341 59.06 64.622 61.134 64.622 63.692 64.622 66.25 57.341 68.324 48.36 68.324Z" fill="#D11C21"/></svg>