<svg viewBox="0 0 96 96" xmlns="http://www.w3.org/2000/svg" xmlns:xlink="http://www.w3.org/1999/xlink" id="Icons_Viral" overflow="hidden"><path d="M71.771 23.125C72.4389 23.1228 72.9798 22.5819 72.982 21.914 72.9867 21.6126 72.8703 21.3219 72.659 21.107L72.78 21.107C73.4464 21.1048 73.9866 20.5663 73.991 19.9 73.9939 19.5833 73.8705 19.2784 73.648 19.053 74.2966 18.9167 74.7118 18.2804 74.5755 17.6318 74.524 17.3869 74.3972 17.1643 74.213 16.995 74.6909 16.8243 75.0073 16.3684 75 15.861 74.9978 15.1931 74.4569 14.6522 73.789 14.65L69.955 14.65C69.631 14.6441 69.3668 14.3886 69.35 14.065 69.7938 12.8302 69.9991 11.5224 69.955 10.211 69.9742 9.54246 69.4478 8.98492 68.7793 8.9657 68.1108 8.94649 67.5532 9.47287 67.534 10.1414 67.5333 10.1646 67.5333 10.1878 67.534 10.211 67.534 13.278 63.962 15.011 63.902 15.054L63.902 21.511C65.334 21.511 65.435 23.125 68.139 23.125Z" fill="#D11C21"/><path d="M62.691 21.712 62.691 14.852C62.6899 14.4068 62.3292 14.0461 61.884 14.045L58.857 14.045 58.857 22.52 61.884 22.52C62.3294 22.5184 62.6899 22.1574 62.691 21.712Z" fill="#D11C21"/><path d="M19.771 45.25C20.4389 45.2478 20.9798 44.7069 20.982 44.039 20.9867 43.7376 20.8703 43.4469 20.659 43.232L20.78 43.232C21.4479 43.2298 21.9888 42.6889 21.991 42.021 21.9939 41.7043 21.8705 41.3994 21.648 41.174 22.2966 41.0377 22.7118 40.4014 22.5755 39.7528 22.524 39.5079 22.3973 39.2853 22.213 39.116 22.6895 38.9458 23.0056 38.492 23 37.986 22.9978 37.3181 22.4569 36.7772 21.789 36.775L17.955 36.775C17.6329 36.7666 17.3716 36.5117 17.355 36.19 17.7971 34.9549 18.0007 33.6471 17.955 32.336 17.9742 31.6675 17.4478 31.1099 16.7793 31.0907 16.1108 31.0715 15.5532 31.5979 15.534 32.2664 15.5333 32.2896 15.5333 32.3128 15.534 32.336 15.534 35.403 11.962 37.136 11.902 37.179L11.902 43.636C13.334 43.636 13.435 45.25 16.139 45.25Z" fill="#D11C21"/><path d="M10.691 43.837 10.691 36.977C10.6899 36.5318 10.3292 36.1711 9.884 36.17L6.857 36.17 6.857 44.645 9.884 44.645C10.3294 44.6434 10.6899 44.2824 10.691 43.837Z" fill="#D11C21"/><rect x="12.5" y="54.125" width="3" height="3" fill="#D11C21"/><rect x="12.5" y="48.125" width="3" height="3" fill="#D11C21"/><rect x="12.5" y="66.125" width="3" height="3" fill="#D11C21"/><rect x="12.5" y="60.125" width="3" height="3" fill="#D11C21"/><rect x="29.5" y="41.125" width="3" height="3" fill="#D11C21"/><rect x="29.5" y="47.125" width="3" height="3" fill="#D11C21"/><rect x="29.5" y="29.125" width="3" height="3" fill="#D11C21"/><rect x="29.5" y="35.125" width="3" height="3" fill="#D11C21"/><rect x="51.5" y="55.125" width="3" height="3" fill="#D11C21"/><rect x="51.5" y="49.125" width="3" height="3" fill="#D11C21"/><rect x="64.5" y="50.125" width="3" height="3" fill="#D11C21"/><rect x="64.5" y="38.125" width="3" height="3" fill="#D11C21"/><rect x="64.5" y="44.125" width="3" height="3" fill="#D11C21"/><rect x="64.5" y="26.125" width="3" height="3" fill="#D11C21"/><rect x="64.5" y="32.125" width="3" height="3" fill="#D11C21"/><rect x="80.5" y="48.125" width="3" height="3" fill="#D11C21"/><rect x="80.5" y="54.125" width="3" height="3" fill="#D11C21"/><rect x="80.5" y="66.125" width="3" height="3" fill="#D11C21"/><rect x="80.5" y="60.125" width="3" height="3" fill="#D11C21"/><rect x="80.5" y="42.125" width="3" height="3" fill="#D11C21"/><path d="M88 82.125 88 72 76 72 76 77.125 71 77.125 71 56.125 61 56.125 61 70.125 58 70.125 58 61.125 48 61.125 48 77.125 44 77.125 44 69.125 37 69.125 37 53.125 25 53.125 25 77.125 20 77.125 20 72.125 15.5 72.125 12.5 72.125 8 72.125 8 82.125 4 82.125 4 88.125 92 88.125 92 82.125 88 82.125Z" fill="#D11C21"/><path d="M53 46.125C53 46.125 59 41.537 59 37.831 59 35.36 55.224 32.713 53 37.125 50.776 32.713 47 35.36 47 37.831 47 41.537 53 46.125 53 46.125Z" fill="#D11C21"/><path d="M82 39.125C82 39.125 88 34.537 88 30.831 88 28.36 84.224 25.713 82 30.125 79.776 25.713 76 28.36 76 30.831 76 34.537 82 39.125 82 39.125Z" fill="#D11C21"/><path d="M31 26.125C31 26.125 37 21.537 37 17.831 37 15.36 33.224 12.713 31 17.125 28.776 12.713 25 15.36 25 17.831 25 21.537 31 26.125 31 26.125Z" fill="#D11C21"/></svg>