<svg viewBox="0 0 96 96" xmlns="http://www.w3.org/2000/svg" xmlns:xlink="http://www.w3.org/1999/xlink" id="Icons_Ticket1_RTL" overflow="hidden"><rect x="27" y="51" width="4" height="8" fill="#D11C21"/><rect x="39" y="45" width="31" height="4" fill="#D11C21"/><rect x="51" y="53" width="19" height="4" fill="#D11C21"/><rect x="47" y="61" width="23" height="4" fill="#D11C21"/><path d="M15 55C15 57.8 12.8 60 10 60L7 60 7 78 89 78 89 59 86 59C83.5 59 81.5 57 81.5 54.5 81.5 52 83.5 50 86 50L89 50 89 32 7 32 7 50 10 50C12.8 50 15 52.2 15 55ZM20.6 58C22.3 52.2 18.9 46.1 13 44.4L13 38 27 38 27 46 31 46 31 38 83 38 83 44.4C79.6 45.4 76.9 48.1 75.9 51.5 74.2 57.1 77.4 62.9 83 64.6L83 72 31 72 31 64 27 64 27 72 13 72 13 65.6C16.7 64.5 19.5 61.7 20.6 58Z" fill="#D11C21"/><path d="M38.3 28 69 28 17.7 17.8 15.7 28 21.8 28 22.5 24.9Z" fill="#D11C21"/></svg>