<svg xmlns="http://www.w3.org/2000/svg" xmlns:xlink="http://www.w3.org/1999/xlink" width="1073" height="390"><defs><clipPath id="clip0"><rect x="69" y="35" width="1073" height="390"></rect></clipPath></defs><g clip-path="url(#clip0)" transform="translate(-69 -35)"><path d="M-21.5266 422.644 9.69518 422.644 9.69518 567.743-21.5266 567.743Z" fill="#05A2DE" transform="matrix(1.00149 0 0 1 320.793 -232.301)"></path><path d="M-28.5926 422.644-21.6909 422.644-21.6909 567.743-28.5926 567.743Z" fill="#006FA1" transform="matrix(1.00149 0 0 1 320.793 -232.301)"></path><path d="M-208.528 575.138-181.415 575.138-181.415 557.719-190.781 557.719-190.781 435.133-208.528 429.874Z" fill="#D3DC00" transform="matrix(1.00149 0 0 1 320.793 -232.301)"></path><path d="M-190.781 557.719-181.415 557.719-181.415 437.762-190.781 435.133Z" fill="#329A38" transform="matrix(1.00149 0 0 1 320.793 -232.301)"></path><path d="M-176.649 454.194C-179.279 454.687-179.772 452.551-178.457 451.565L-159.56 437.762-159.56 413.606-190.781 413.606-190.781 435.133-181.579 437.762-181.579 557.719-159.395 557.719-159.395 448.114-159.395 448.114C-166.79 450.908-173.199 453.373-176.649 454.194" fill="#4FBABB" transform="matrix(1.00149 0 0 1 320.793 -232.301)"></path><path d="M-151.836 432.175-151.836 432.175-151.836 413.442-159.395 413.442-159.395 437.762Z" fill="#006FA1" transform="matrix(1.00149 0 0 1 320.793 -232.301)"></path><path d="M-159.395 447.95-159.395 447.95-159.395 557.719-151.836 557.719-151.836 444.992C-154.466 445.978-156.93 446.964-159.395 447.95" fill="#006FA1" transform="matrix(1.00149 0 0 1 320.793 -232.301)"></path><path d="M-151.836 432.175-151.836 432.175-116.178 406.211-116.178 334.073-159.395 347.876-159.395 413.442-151.836 413.442Z" fill="#008AC8" transform="matrix(1.00149 0 0 1 320.793 -232.301)"></path><path d="M-151.836 444.992-151.836 557.719-159.395 557.719-159.395 611.125-116.178 611.125-116.178 436.612-116.178 434.968C-120.122 432.832-136.718 438.912-151.836 444.992" fill="#008AC8" transform="matrix(1.00149 0 0 1 320.793 -232.301)"></path><path d="M-57.1851 396.845-49.6262 399.145-49.6262 310.574-94.8155 294.963-94.8155 406.211-57.1851 433.489Z" fill="#4FBABB" transform="matrix(1.00149 0 0 1 320.793 -232.301)"></path><path d="M-94.8155 435.133-94.8155 585.161-57.1851 585.161-57.1851 445.649C-72.9603 439.405-90.8717 432.668-94.8155 435.133" fill="#4FBABB" transform="matrix(1.00149 0 0 1 320.793 -232.301)"></path><path d="M-49.6262 439.076-49.6262 399.145-57.1851 396.845-57.1851 433.489Z" fill="#329A38" transform="matrix(1.00149 0 0 1 320.793 -232.301)"></path><path d="M-57.1851 445.649-57.1851 585.161-49.4618 585.161-49.4618 448.607C-51.9267 447.621-54.5559 446.635-57.1851 445.649" fill="#329A38" transform="matrix(1.00149 0 0 1 320.793 -232.301)"></path><path d="M-21.5266 422.644-21.5266 407.362-49.4618 399.145-49.4618 439.076-32.372 451.565C-31.0574 452.551-31.5504 454.852-34.1796 454.194-37.3018 453.537-42.8888 451.401-49.4618 448.772L-49.4618 585.326-57.1851 585.326-57.1851 626.407-21.5266 626.407-21.5266 567.907-28.4282 567.907-28.4282 422.808-21.5266 422.808Z" fill="#89BF22" transform="matrix(1.00149 0 0 1 320.793 -232.301)"></path><path d="M95.6372 466.026C114.37 470.627 124.23 477.364 124.23 492.153 124.23 508.915 111.084 518.938 92.515 518.938 78.876 518.938 66.0587 514.173 55.3775 504.642L64.7441 493.468C73.289 500.863 81.8339 504.971 92.8436 504.971 102.539 504.971 108.619 500.534 108.619 493.632 108.619 487.224 105.004 483.773 88.5712 479.829 69.6738 475.228 58.9927 469.641 58.9927 453.208 58.9927 437.762 71.6457 427.245 89.3928 427.245 102.374 427.245 112.727 431.189 121.601 438.419L113.22 450.251C105.168 444.335 97.2804 441.048 89.0642 441.048 79.862 441.048 74.6036 445.814 74.6036 451.729 74.4392 458.96 78.5474 462.082 95.6372 466.026M186.673 429.381 172.213 429.381 133.103 518.938 149.207 518.938 158.409 497.412 200.477 497.412 209.514 518.938 226.111 518.938 186.673 429.381ZM194.561 483.609 163.996 483.609 179.279 447.95 194.561 483.609ZM303.344 491.496 255.69 430.039 241.229 430.039 241.229 519.103 256.676 519.103 256.676 455.838 305.809 519.103 318.955 519.103 318.955 430.039 303.508 430.039 303.508 491.496ZM388.464 518.938C416.564 518.938 436.119 499.384 436.119 474.078 436.119 448.772 416.728 429.381 388.464 429.381L355.106 429.381 355.106 518.938 388.464 518.938M388.464 443.678C407.362 443.678 419.522 456.659 419.522 474.242 419.522 491.989 407.197 504.642 388.464 504.642L370.717 504.642 370.717 443.678 388.464 443.678M559.527 429.381 493.139 429.381 493.139 518.938 560.184 518.938 560.184 504.806 508.915 504.806 508.915 480.815 553.775 480.815 553.775 466.683 508.915 466.683 508.915 443.349 559.691 443.349 559.691 429.381ZM471.12 429.381 455.345 429.381 455.345 518.938 471.12 518.938 471.12 429.381ZM615.562 518.938C631.337 518.938 643.825 512.53 652.535 505.135L652.535 467.833 614.74 467.833 614.74 481.472 637.417 481.472 637.417 498.069C631.994 502.177 624.271 504.806 616.055 504.806 597.979 504.806 585.819 491.332 585.819 472.927 585.819 455.673 598.307 441.541 614.576 441.541 625.914 441.541 632.651 445.156 639.389 451.072L649.248 439.241C640.046 431.518 630.515 427.245 615.069 427.245 588.284 427.245 569.222 448.279 569.222 473.256 569.386 499.219 587.626 518.938 615.562 518.938M740.613 433.161C717.114 419.357 689.836 427.738 677.183 449.429 664.53 471.12 670.446 498.562 693.945 512.365 717.443 526.169 744.721 517.788 757.374 496.097 770.191 474.406 764.276 446.964 740.613 433.161M701.504 500.041C686.221 491.167 682.606 472.434 691.48 457.481 700.189 442.527 717.936 436.612 733.218 445.485 748.5 454.359 751.951 473.092 743.242 488.045 734.533 502.999 716.786 508.915 701.504 500.041M767.562 569.058 767.562 574.316 766.083 574.316 766.083 569.058 764.111 569.058 764.111 567.743 769.698 567.743 769.698 569.058 767.562 569.058ZM777.422 574.316 777.422 567.579 775.778 567.579 773.971 570.372 772.163 567.579 770.52 567.579 770.52 574.316 771.999 574.316 771.999 570.044 773.807 572.837 773.807 572.837 775.614 570.044 775.614 574.48 777.422 574.48ZM59.4857 537.178 55.3775 537.178 55.3775 574.152 59.4857 574.152 59.4857 537.178ZM97.4447 566.757 74.1106 537.178 70.1668 537.178 70.1668 574.152 74.2749 574.152 74.2749 543.751 98.102 574.152 101.389 574.152 101.389 537.178 97.2804 537.178 97.2804 566.757ZM125.873 540.958 138.197 540.958 138.197 537.014 109.276 537.014 109.276 540.958 121.601 540.958 121.601 573.987 125.873 573.987 125.873 540.958ZM172.87 537.178 146.085 537.178 146.085 574.152 173.034 574.152 173.034 570.372 150.357 570.372 150.357 557.391 170.569 557.391 170.569 553.611 150.357 553.611 150.357 540.958 172.87 540.958 172.87 537.178ZM211.979 574.152 200.641 559.034C206.392 558.048 210.665 554.433 210.665 548.188 210.665 541.615 205.406 537.178 197.354 537.178L181.415 537.178 181.415 574.152 185.523 574.152 185.523 559.855 196.04 559.855 206.721 574.152 211.979 574.152ZM197.026 540.958C202.941 540.958 206.392 543.751 206.392 548.353 206.392 553.118 202.448 556.076 196.861 556.076L185.687 556.076 185.687 541.122 197.026 541.122M246.816 566.757 223.482 537.178 219.538 537.178 219.538 574.152 223.646 574.152 223.646 543.751 247.473 574.152 250.76 574.152 250.76 537.178 246.652 537.178 246.652 566.757ZM280.339 537.178 276.395 537.178 259.634 574.316 263.906 574.316 268.343 564.621 288.39 564.621 292.663 574.316 297.1 574.316 280.339 537.178ZM286.747 560.841 269.986 560.841 278.367 541.944 286.747 560.841ZM312.218 540.958 324.542 540.958 324.542 537.014 295.621 537.014 295.621 540.958 307.945 540.958 307.945 573.987 312.218 573.987 312.218 540.958ZM336.866 537.178 332.758 537.178 332.758 574.152 336.866 574.152 336.866 537.178ZM364.802 574.152C375.811 574.152 383.206 565.442 383.206 555.419 383.206 545.395 375.811 536.85 364.802 536.85 353.792 536.85 346.397 545.559 346.397 555.583 346.397 565.442 353.792 574.152 364.802 574.152M364.802 540.465C373.018 540.465 379.098 547.202 379.098 555.419 379.098 563.635 373.182 570.208 364.966 570.208 356.75 570.208 350.67 563.471 350.67 555.254 350.67 547.038 356.585 540.465 364.802 540.465M419.686 566.757 396.352 537.178 392.408 537.178 392.408 574.152 396.516 574.152 396.516 543.751 420.343 574.152 423.63 574.152 423.63 537.178 419.522 537.178 419.522 566.757ZM451.894 537.178 447.95 537.178 431.189 574.48 435.461 574.48 439.898 564.785 459.946 564.785 464.218 574.48 468.655 574.48 451.894 537.178ZM458.138 560.841 441.377 560.841 449.758 541.944 458.138 560.841ZM475.885 574.152 500.863 574.152 500.863 570.208 479.993 570.208 479.993 537.178 475.885 537.178 475.885 574.152ZM541.944 537.178 538 537.178 521.239 574.48 525.511 574.48 529.948 564.785 549.996 564.785 554.268 574.48 558.705 574.48 541.944 537.178ZM548.353 560.841 531.591 560.841 539.972 541.944 548.353 560.841ZM570.536 537.178 566.428 537.178 566.428 574.152 570.536 574.152 570.536 537.178ZM611.946 574.152 600.608 559.034C606.359 558.048 610.632 554.433 610.632 548.188 610.632 541.615 605.373 537.178 597.321 537.178L581.382 537.178 581.382 574.152 585.49 574.152 585.49 559.855 596.007 559.855 606.688 574.152 611.946 574.152ZM596.993 540.958C602.909 540.958 606.359 543.751 606.359 548.353 606.359 553.118 602.416 556.076 596.828 556.076L585.49 556.076 585.49 541.122 596.993 541.122M632.651 561.006C640.539 561.006 647.112 556.898 647.112 548.846 647.112 541.451 641.689 537.014 633.309 537.014L619.505 537.014 619.505 573.987 623.613 573.987 623.613 561.006 632.651 561.006M632.98 540.958C638.896 540.958 642.84 543.751 642.84 549.01 642.84 553.94 638.896 557.226 632.651 557.226L623.613 557.226 623.613 540.958 632.98 540.958M673.568 574.152C684.578 574.152 691.973 565.442 691.973 555.419 691.973 545.395 684.578 536.85 673.568 536.85 662.559 536.85 655.164 545.559 655.164 555.583 655.328 565.442 662.559 574.152 673.568 574.152M673.568 540.465C681.784 540.465 687.865 547.202 687.865 555.419 687.865 563.635 681.949 570.208 673.733 570.208 665.516 570.208 659.436 563.471 659.436 555.254 659.436 547.038 665.352 540.465 673.568 540.465M730.096 574.152 718.758 559.034C724.509 558.048 728.781 554.433 728.781 548.188 728.781 541.615 723.523 537.178 715.471 537.178L699.532 537.178 699.532 574.152 703.64 574.152 703.64 559.855 714.157 559.855 724.838 574.152 730.096 574.152ZM715.143 540.958C721.058 540.958 724.509 543.751 724.509 548.353 724.509 553.118 720.565 556.076 714.978 556.076L703.64 556.076 703.64 541.122 715.143 541.122M751.458 540.958 763.783 540.958 763.783 537.014 734.862 537.014 734.862 540.958 747.186 540.958 747.186 573.987 751.458 573.987 751.458 540.958Z" transform="matrix(1.00149 0 0 1 320.793 -232.301)"></path></g></svg>