<svg viewBox="0 0 96 96" xmlns="http://www.w3.org/2000/svg" xmlns:xlink="http://www.w3.org/1999/xlink" id="Icons_Landing" overflow="hidden"><rect x="6" y="72" width="84" height="4" fill="#D11C21"/><path d="M75.54 41.636 52.209 37.4 31.341 15.544C30.8942 15.0757 30.3107 14.7606 29.674 14.644L26.188 14.011C25.7729 13.9351 25.3749 14.2101 25.2991 14.6252 25.268 14.7952 25.2955 14.9706 25.377 15.123L35.651 34.391 19.094 31.384 13.863 21.237C13.5357 20.6043 12.9338 20.1589 12.233 20.031L9.858 19.6C9.44277 19.5219 9.04289 19.7953 8.96484 20.2105 8.95 20.2895 8.94769 20.3703 8.958 20.45L10.793 33C10.938 33.9903 11.5578 34.8473 12.453 35.295L19.332 38.733C25.1671 41.6497 31.3874 43.7218 37.806 44.887L42.773 45.787C42.1133 46.6729 42.2967 47.9259 43.1826 48.5856 44.0685 49.2453 45.3215 49.0619 45.9812 48.176 46.3543 47.6749 46.4719 47.0283 46.299 46.428L70.905 50.9C70.2686 51.8028 70.4845 53.0506 71.3873 53.687 72.2901 54.3234 73.5378 54.1075 74.1743 53.2047 74.5134 52.7236 74.6234 52.1176 74.475 51.548L76.775 51.966C76.775 51.966 84.301 53.333 84.984 49.566 85.393 47.313 78.551 42.183 75.54 41.636Z" fill="#D11C21"/></svg>