<svg width="97" height="97" xmlns="http://www.w3.org/2000/svg" xmlns:xlink="http://www.w3.org/1999/xlink" overflow="hidden"><defs><clipPath id="clip0"><rect x="382" y="355" width="97" height="97"/></clipPath><clipPath id="clip1"><rect x="383" y="355" width="96" height="96"/></clipPath><clipPath id="clip2"><rect x="383" y="355" width="96" height="96"/></clipPath><clipPath id="clip3"><rect x="383" y="355" width="96" height="96"/></clipPath></defs><g clip-path="url(#clip0)" transform="translate(-382 -355)"><g clip-path="url(#clip1)"><g clip-path="url(#clip2)"><g clip-path="url(#clip3)"><path d="M459 415 403 415 403 381 459 381 459 415ZM465 379C465 376.8 463.2 375 461 375L401 375C398.8 375 397 376.8 397 379L397 421 465 421 465 379Z" fill="#D11C21"/><path d="M437 425 437 426C437 426.6 436.6 427 436 427L426 427C425.4 427 425 426.6 425 426L425 425 385 425 385 427C385 429.2 386.8 431 389 431L473 431C475.2 431 477 429.2 477 427L477 425 437 425Z" fill="#D11C21"/></g></g></g><rect x="416" y="388" width="29" height="22" stroke="#D11C21" stroke-width="2" stroke-miterlimit="8" fill="none"/><path d="M427 388 427 400.279" stroke="#D11C21" stroke-width="2" stroke-miterlimit="8" fill="none" fill-rule="evenodd"/><path d="M427 400 438.737 400" stroke="#D11C21" stroke-width="2" stroke-miterlimit="8" fill="none" fill-rule="evenodd"/><path d="M438 400 438 409.762" stroke="#D11C21" stroke-width="2" stroke-miterlimit="8" fill="none" fill-rule="evenodd"/><path d="M423 400 423 409.762" stroke="#D11C21" stroke-width="2" stroke-miterlimit="8" fill="none" fill-rule="evenodd"/><path d="M0 0 10.2696 0.000104987" stroke="#D11C21" stroke-width="2" stroke-miterlimit="8" fill="none" fill-rule="evenodd" transform="matrix(-1 0 0 1 426.27 400)"/><path d="M438 388 438 400.279" stroke="#D11C21" stroke-width="2" stroke-miterlimit="8" fill="none" fill-rule="evenodd"/><rect x="416" y="388" width="11" height="12" stroke="#D11C21" stroke-width="2" stroke-miterlimit="8" fill="#D11C21"/></g></svg>