<svg viewBox="0 0 96 96" xmlns="http://www.w3.org/2000/svg" xmlns:xlink="http://www.w3.org/1999/xlink" id="Icons_Sort" overflow="hidden"><path d="M33 67 33 14.242 41.879 23.121C43.0708 24.272 44.97 24.239 46.121 23.0473 47.2439 21.8847 47.2439 20.0416 46.121 18.879L32.121 4.879C30.9495 3.70785 29.0505 3.70785 27.879 4.879L13.879 18.879C12.728 20.0708 12.761 21.97 13.9527 23.121 15.1153 24.2438 16.9584 24.2438 18.121 23.121L27 14.242 27 67C27 68.6569 28.3431 70 30 70 31.6569 70 33 68.6569 33 67Z" fill="#D11C21"/><path d="M69 29 69 81.758 77.879 72.879C79.0708 71.728 80.97 71.761 82.121 72.9527 83.2438 74.1153 83.2438 75.9584 82.121 77.121L68.121 91.121C66.9495 92.2921 65.0505 92.2921 63.879 91.121L49.879 77.121C48.728 75.9292 48.761 74.03 49.9527 72.879 51.1153 71.7562 52.9584 71.7562 54.121 72.879L63 81.758 63 29C63 27.3431 64.3431 26 66 26 67.6569 26 69 27.3431 69 29Z" fill="#D11C21"/></svg>