<svg viewBox="0 0 96 96" xmlns="http://www.w3.org/2000/svg" xmlns:xlink="http://www.w3.org/1999/xlink" id="Icons_Mortgage" overflow="hidden"><path d="M48.002 12 48 12 6.002 51.953 10.542 55.833 48 20.25 48.002 20.25 85.46 55.833 90 51.953 48.002 12Z" fill="#D11C21"/><path d="M54.968 65.433C53.5685 65.4319 52.4331 66.5655 52.432 67.965 52.4309 69.3645 53.5645 70.4999 54.964 70.501 56.3635 70.5021 57.4989 69.3685 57.5 67.969 57.5 67.9683 57.5 67.9677 57.5 67.967 57.4989 66.5687 56.3662 65.4352 54.968 65.433Z" fill="#D11C21"/><path d="M41.035 56.567C42.4345 56.5664 43.5686 55.4315 43.568 54.032 43.5674 52.6325 42.4325 51.4985 41.033 51.499 39.6339 51.4996 38.5 52.6339 38.5 54.033 38.5011 55.4324 39.6356 56.5664 41.035 56.567Z" fill="#D11C21"/><path d="M48 25.766 18 54.266 18 84 78 84 78 54.264ZM41.035 48.5C44.0913 48.5006 46.5686 50.9787 46.568 54.035 46.5674 57.0913 44.0893 59.5686 41.033 59.568 37.9767 59.5674 35.4995 57.0893 35.5 54.033 35.5033 50.9778 37.9798 48.5022 41.035 48.5ZM36.674 70.206 56.841 50.04 58.962 52.161 38.8 72.327ZM54.968 73.5C51.9117 73.5011 49.4331 71.0243 49.432 67.968 49.4309 64.9117 51.9077 62.4331 54.964 62.432 58.0203 62.4309 60.4989 64.9077 60.5 67.964 60.5 67.965 60.5 67.966 60.5 67.967 60.4967 71.021 58.022 73.4961 54.968 73.5Z" fill="#D11C21"/></svg>