<svg viewBox="0 0 96 96" xmlns="http://www.w3.org/2000/svg" xmlns:xlink="http://www.w3.org/1999/xlink" id="Icons_Illustrator" overflow="hidden"><path d="M32.532 33.506 34.532 33.506 34.532 32.287C43.761 35.087 48.114 41.741 47.777 52.494L45.532 52.494 45.532 60 53.039 60 53.039 52.494 50.774 52.494C51.06 42.694 47.752 35.76 40.902 31.776L55.58 34.476C55.8104 35.9282 57.0616 36.998 58.532 37 58.554 37 58.574 36.994 58.595 36.994L58.532 50.5C58.532 50.7761 58.7559 51 59.032 51 59.1894 51 59.3376 50.9259 59.432 50.8L64.042 45.008 71.456 44.867C71.7321 44.867 71.956 44.6431 71.956 44.367 71.956 44.2096 71.8819 44.0614 71.756 43.967L60.931 35.785C61.9257 34.4669 61.6636 32.592 60.3455 31.5972 59.0274 30.6025 57.1525 30.8646 56.1577 32.1827 56.0795 32.2864 56.0081 32.395 55.944 32.508L34.532 28.572 34.532 26 27.026 26 27.026 33.506 32.532 33.506ZM51.039 58 47.532 58 47.532 54.494 51.039 54.494ZM29.026 28 32.532 28 32.532 31.506 29.026 31.506Z" fill="#D11C21"/><path d="M84 15 12 15C9.7936 15.0066 8.00659 16.7936 8 19L8 67C8.00659 69.2064 9.7936 70.9934 12 71L40 71 40 77 30 77 30 83 66 83 66 77 56 77 56 71 84 71C86.2064 70.9934 87.9934 69.2064 88 67L88 19C87.9934 16.7936 86.2064 15.0066 84 15ZM82 65 14 65 14 21 82 21Z" fill="#D11C21"/></svg>