<svg width="102" height="102" xmlns="http://www.w3.org/2000/svg" xmlns:xlink="http://www.w3.org/1999/xlink" overflow="hidden"><defs><clipPath id="clip0"><rect x="696" y="509" width="102" height="102"/></clipPath><clipPath id="clip1"><rect x="712" y="524" width="72" height="73"/></clipPath><clipPath id="clip2"><rect x="712" y="524" width="72" height="73"/></clipPath><clipPath id="clip3"><rect x="712" y="524" width="72" height="73"/></clipPath></defs><g clip-path="url(#clip0)" transform="translate(-696 -509)"><path d="M699.5 560.5C699.5 533.99 720.99 512.5 747.5 512.5 774.01 512.5 795.5 533.99 795.5 560.5 795.5 587.01 774.01 608.5 747.5 608.5 720.99 608.5 699.5 587.01 699.5 560.5Z" stroke="#D11C21" stroke-width="5.33333" stroke-miterlimit="8" fill="none" fill-rule="evenodd"/><g clip-path="url(#clip1)"><g clip-path="url(#clip2)"><g clip-path="url(#clip3)"><path d="M49.5 60 22.5 60 22.5 12 49.5 12 49.5 60ZM33 6 39 6C39.825 6 40.5 6.675 40.5 7.5 40.5 8.325 39.825 9 39 9L33 9C32.175 9 31.5 8.325 31.5 7.5 31.5 6.675 32.175 6 33 6ZM52.5 3 19.5 3C18.675 3 18 3.675 18 4.5L18 67.5C18 68.325 18.675 69 19.5 69L52.5 69C53.325 69 54 68.325 54 67.5L54 4.5C54 3.675 53.325 3 52.5 3Z" fill="#D11C21" transform="matrix(1 0 0 1.01389 712 524)"/></g></g></g><path d="M0 0 65.6112 72.0416" stroke="#D11C21" stroke-width="6" stroke-miterlimit="8" fill="none" fill-rule="evenodd" transform="matrix(-1 0 0 1 780.611 526)"/></g></svg>