<svg viewBox="0 0 96 96" xmlns="http://www.w3.org/2000/svg" xmlns:xlink="http://www.w3.org/1999/xlink" id="Icons_PluggedUnplugged" overflow="hidden"><path d="M45.222 50.879 39.565 45.222 45.222 39.565 50.879 45.222C52.0602 46.3839 53.9596 46.3682 55.1215 45.187 56.27 44.0193 56.2698 42.1464 55.121 40.979L49.464 35.323 53 31.787 45.929 24.716C40.8968 19.682 33.0197 18.8778 27.074 22.791L24.755 20.391C19.6581 15.1461 12.6605 12.1795 5.347 12.163L2 12.163 2 18.163 5.347 18.163C11.0371 18.1743 16.4818 20.4819 20.447 24.563L22.829 27.027C18.8824 32.9747 19.6737 40.8796 24.721 45.927L31.787 53 35.323 49.464 40.979 55.121C42.1599 56.2831 44.0594 56.2679 45.2215 55.087 46.3703 53.9196 46.3705 52.0466 45.222 50.879Z" fill="#D11C21"/><path d="M90.707 78C85.2564 78.0114 80.0172 75.8923 76.107 72.095L73.372 69.449C77.2825 63.5025 76.4781 55.627 71.446 50.594L64.375 43.523 43.163 64.737 50.234 71.808C55.2816 76.8549 63.1865 77.6458 69.134 73.699L71.934 76.408C76.9618 81.2905 83.6986 84.0149 90.707 84L94 84 94 78Z" fill="#D11C21"/></svg>