<svg width="97" height="98" xmlns="http://www.w3.org/2000/svg" xmlns:xlink="http://www.w3.org/1999/xlink" overflow="hidden"><defs><clipPath id="clip0"><rect x="540" y="511" width="97" height="98"/></clipPath><clipPath id="clip1"><rect x="541" y="512" width="96" height="96"/></clipPath><clipPath id="clip2"><rect x="541" y="512" width="96" height="96"/></clipPath><clipPath id="clip3"><rect x="541" y="512" width="96" height="96"/></clipPath></defs><g clip-path="url(#clip0)" transform="translate(-540 -511)"><path d="M545.5 558.5C545.5 534.752 564.528 515.5 588 515.5 611.472 515.5 630.5 534.752 630.5 558.5 630.5 582.248 611.472 601.5 588 601.5 564.528 601.5 545.5 582.248 545.5 558.5Z" stroke="#D11C21" stroke-width="5.33333" stroke-miterlimit="8" fill="none" fill-rule="evenodd"/><g clip-path="url(#clip1)"><g clip-path="url(#clip2)"><g clip-path="url(#clip3)"><path d="M589 537C576.3 537 564.8 542.2 556.5 550.5L562.2 556.2C569 549.3 578.5 545 589 545 599.5 545 609 549.3 615.9 556.1L621.6 550.4C613.1 542.2 601.7 537 589 537Z" fill="#D11C21"/><path d="M565 559 570.7 564.7C575.2 559.9 581.8 557 589 557 596.2 557 602.7 559.9 607.4 564.6L613 559C606.8 552.8 598.3 549 589 549 579.7 549 571.1 552.8 565 559Z" fill="#D11C21"/><path d="M573.5 567.5 579.2 573.2C581.7 570.7 585.2 569.1 589.1 569.1 593 569.1 596.5 570.7 599 573.2L604.7 567.5C600.7 563.5 595.2 561 589.2 561 583.2 561 577.4 563.5 573.5 567.5Z" fill="#D11C21"/><path d="M581.9 575.9 589 583 596.1 575.9C594.2 574.1 591.8 573 589 573 586.2 573 583.7 574.1 581.9 575.9Z" fill="#D11C21"/></g></g></g><path d="M0 0 58.4472 64.1755" stroke="#D11C21" stroke-width="6" stroke-miterlimit="8" fill="none" fill-rule="evenodd" transform="matrix(-1 0 0 1 617.447 528)"/></g></svg>